<svg id="Layer_1" data-name="Layer 1" xmlns="http://www.w3.org/2000/svg" viewBox="0 0 241 212.5"><title>full_logoArtboard 4 copy</title><path d="M120.31,107c-3.92,0-7.86-.17-11.77.06-2.61.16-4-.63-4.75-3.21q-3.5-11.49-7.4-22.84c-.85-2.48-.39-3.88,1.85-5.41,6.61-4.53,13-9.3,19.45-14.11,1.84-1.37,3.15-1.81,5.24-.2,6.49,5,13.15,9.73,19.83,14.46,1.89,1.34,2.66,2.47,1.76,5q-4.11,11.53-7.58,23.31c-.75,2.52-2,3.08-4.35,3C128.5,106.87,124.4,107,120.31,107Z" fill="#fff"/><path d="M167,113.82c-8.47,18.3-31.81,30.48-52.73,27.45C95.76,138.6,81.31,130,72.87,112.72l.66-1.73C84.26,121.76,96.62,129.5,112,131.48c18.9,2.44,35.29-3.18,49.54-15.57,1.15-1,2.32-2,3.48-3A2,2,0,0,1,167,113.82Z" fill="#fff"/><path d="M76,48c1.74,8.07,3.32,15.35,4.88,22.63.25,1.18.34,2.39-.69,3.32-5.84,5.32-11.7,10.62-17.85,16.21C60.24,76.52,65.65,59.81,76,48Z" fill="#fff"/><path d="M178.81,90.16c-5.95-5.36-11.35-10.25-16.78-15.1a4.52,4.52,0,0,1-1.72-4.9c1.65-7.09,3.08-14.24,4.62-21.47C174,55.68,180.78,75.6,178.81,90.16Z" fill="#fff"/><path d="M98.25,31.62c15.23-5.86,29.46-5.77,44.66,0L121.76,43.7c-1.21.69-2.32.18-3.36-.42C112,39.57,105.53,35.84,98.25,31.62Z" fill="#fff"/><path d="M167,113.82a2,2,0,0,0-2-.87c3-2.77,2.35-4.67-1.39-5.79-2.27-.67-4.55-1.28-7.91-2.22,5.39-2.19,9.68-1.87,13.7.74,4.67,3,6.25,7.51,5.61,14.3-1.6-2.83-2.63-4.49-3.5-6.22C169.94,110.52,168.47,111,167,113.82Z" fill="#fff"/><path d="M73.53,111l-.66,1.73c-1-1.32-1.91-1.2-2.71.16-1.18,2-2.31,4.05-4.17,7.33-.58-6,.47-10.13,4.07-13.3,4.12-3.64,8.86-4.31,15.21-2.08-3.36,1-5.75,1.46-7.88,2.45C75.79,108,73.11,108,73.53,111Z" fill="#fff"/><path d="M149.88,180.3l3.87-2.93a8.7,8.7,0,0,0,2.2,2.12,5,5,0,0,0,2.7.71c1.51,0,2.27-.53,2.27-1.6a1.33,1.33,0,0,0-.44-1.07,8.76,8.76,0,0,0-1.8-1l-2.27-1q-5.57-2.48-5.57-6.64a5.84,5.84,0,0,1,2.15-4.7,8.34,8.34,0,0,1,5.56-1.81q5.34,0,7.54,4.44l-3.84,2.94a6.36,6.36,0,0,0-1.67-1.79,3.45,3.45,0,0,0-2-.55c-1.31,0-2,.47-2,1.4a1.32,1.32,0,0,0,.41,1,5.49,5.49,0,0,0,1.49.81l2.53,1.07a11.45,11.45,0,0,1,4.29,2.79,5.64,5.64,0,0,1,1.35,3.85,6.12,6.12,0,0,1-2.28,5,8.85,8.85,0,0,1-5.79,1.87,10.46,10.46,0,0,1-5.26-1.32A8.74,8.74,0,0,1,149.88,180.3Z" fill="#fff"/><path d="M171.21,164.66a3.19,3.19,0,0,1-1-2.4,3.23,3.23,0,0,1,1-2.42,3.39,3.39,0,0,1,2.48-1,3.47,3.47,0,0,1,2.5,1,3.21,3.21,0,0,1,1,2.42,3.16,3.16,0,0,1-1,2.38,3.65,3.65,0,0,1-5,0Zm-.35,20.18V168.16h5.73v16.68Z" fill="#fff"/><path d="M193,159.82h5.74v25h-5.24V183.1a5.46,5.46,0,0,1-4.77,2.14,7.48,7.48,0,0,1-5.75-2.45,9.84,9.84,0,0,1,0-12.54,7.45,7.45,0,0,1,5.74-2.49A6,6,0,0,1,193,169.3Zm-.82,19.28a3.47,3.47,0,0,0,.92-2.57,3.6,3.6,0,0,0-.93-2.6,3.25,3.25,0,0,0-4.62,0,3.45,3.45,0,0,0-1,2.58,3.59,3.59,0,0,0,.91,2.59,3.16,3.16,0,0,0,2.36.95A3.11,3.11,0,0,0,192.15,179.1Z" fill="#fff"/><path d="M219.32,178.5H208.65c.62,1.27,1.87,1.9,3.73,1.9a8.37,8.37,0,0,0,4.37-1.3l2.07,3.9a10.69,10.69,0,0,1-6.64,2.24,9.4,9.4,0,0,1-6.72-2.5,8.22,8.22,0,0,1-2.65-6.24,8.32,8.32,0,0,1,2.59-6.2,8.68,8.68,0,0,1,6.32-2.54,7.65,7.65,0,0,1,5.75,2.3,7.78,7.78,0,0,1,2.22,5.61A10.89,10.89,0,0,1,219.32,178.5Zm-10.87-3.73h5.8a2.4,2.4,0,0,0-.83-1.81,2.89,2.89,0,0,0-1.94-.7,3,3,0,0,0-1.9.65A3.57,3.57,0,0,0,208.45,174.77Z" fill="#fff"/><path d="M21.31,184.84v-22h15V168H27.05v4.21h7.47v5.17H27.05v7.47Z" fill="#fff"/><path d="M40.61,164.66a3.19,3.19,0,0,1-1-2.4,3.23,3.23,0,0,1,1-2.42,3.41,3.41,0,0,1,2.48-1,3.47,3.47,0,0,1,2.5,1,3.21,3.21,0,0,1,1,2.42,3.16,3.16,0,0,1-1,2.38,3.65,3.65,0,0,1-5,0Zm-.35,20.18V168.16H46v16.68Z" fill="#fff"/><path d="M62,168.16H68L59.5,185.24H57.67l-8.54-17.08H55.2l3.4,7.51Z" fill="#fff"/><path d="M86.19,178.5H75.51c.63,1.27,1.87,1.9,3.74,1.9a8.4,8.4,0,0,0,4.37-1.3l2.07,3.9a10.69,10.69,0,0,1-6.64,2.24,9.4,9.4,0,0,1-6.72-2.5,8.22,8.22,0,0,1-2.65-6.24,8.35,8.35,0,0,1,2.58-6.2,8.7,8.7,0,0,1,6.32-2.54,7.66,7.66,0,0,1,5.76,2.3,7.77,7.77,0,0,1,2.21,5.61A11.32,11.32,0,0,1,86.19,178.5Zm-10.88-3.73h5.81a2.38,2.38,0,0,0-.84-1.81,2.84,2.84,0,0,0-1.93-.7,2.94,2.94,0,0,0-1.9.65A3.58,3.58,0,0,0,75.31,174.77Z" fill="#fff"/><path d="M125.87,175.17v9.67h-5.24v-1.37a6.68,6.68,0,0,1-4.8,1.77,5.77,5.77,0,0,1-4.19-1.49,4.88,4.88,0,0,1-1.55-3.68,4.33,4.33,0,0,1,1.75-3.65,7.81,7.81,0,0,1,4.79-1.32h3.5v-.27c0-1.42-.84-2.13-2.53-2.13a4.38,4.38,0,0,0-2,.46,11.28,11.28,0,0,0-2.15,1.57l-2.67-3.63a10.3,10.3,0,0,1,7.54-3.34,7.71,7.71,0,0,1,5.55,1.92A7.2,7.2,0,0,1,125.87,175.17Zm-5.74,3.57v-.14h-2.7c-1,0-1.53.42-1.53,1.27a1.14,1.14,0,0,0,.45.95,2,2,0,0,0,1.25.35,2.52,2.52,0,0,0,1.83-.67A2.3,2.3,0,0,0,120.13,178.74Z" fill="#fff"/><rect x="93.35" y="173.96" width="11.18" height="5.66" fill="#fff"/><rect x="133.37" y="173.96" width="11.18" height="5.66" fill="#fff"/></svg>