<svg xmlns="http://www.w3.org/2000/svg" xmlns:xlink="http://www.w3.org/1999/xlink" viewBox="0 0 1024 1024"><defs><mask id="mask" x="-170.39" y="-167.39" width="1363.11" height="1363.11" maskUnits="userSpaceOnUse"><g id="mask-2"><rect id="path-1" x="-170.39" y="-167.39" width="1363.11" height="1363.11" fill="#fff"/></g></mask></defs><title>ic_FASDark</title><g id="Layer_2" data-name="Layer 2"><rect y="4" width="1024" height="1024" fill="#3700b3"/><path d="M511.21,602c-15,0-30.06-.65-45,.23-10,.6-15.2-2.4-18.21-12.28q-13.37-44-28.28-87.41c-3.25-9.49-1.52-14.82,7.06-20.69,25.28-17.31,49.91-35.59,74.44-54,7-5.27,12-6.94,20-.79,24.82,19.06,50.32,37.25,75.87,55.34,7.23,5.13,10.17,9.46,6.75,19.05q-15.78,44.14-29,89.18c-2.86,9.65-7.71,11.8-16.64,11.49C542.55,601.61,526.87,602,511.21,602Z" fill="#fff"/><path d="M689.83,628.21c-32.43,70-121.73,116.6-201.77,105C417.28,723,362,690.1,329.67,624c.85-2.21,1.69-4.41,2.53-6.62,41.08,41.2,88.36,70.8,147.28,78.39,72.33,9.32,135-12.15,189.58-59.59,4.39-3.82,8.87-7.55,13.31-11.32C685.33,624.92,688.14,625.32,689.83,628.21Z" fill="#fff"/><path d="M341.62,376.35c6.67,30.88,12.72,58.72,18.67,86.59,1,4.53,1.3,9.15-2.61,12.7-22.37,20.35-44.77,40.66-68.32,62C281.36,485.47,302.07,421.55,341.62,376.35Z" fill="#fff"/><path d="M735,537.65c-22.75-20.48-43.4-39.19-64.2-57.75-5.77-5.15-8.53-10.39-6.58-18.74,6.32-27.15,11.8-54.49,17.69-82.17C716.61,405.75,742.57,482,735,537.65Z" fill="#fff"/><path d="M426.79,313.7c58.29-22.46,112.72-22.08,170.9,0C569.17,330,543,345,516.77,359.91c-4.65,2.65-8.89.68-12.87-1.61C479.25,344.11,454.65,329.83,426.79,313.7Z" fill="#fff"/><path d="M689.83,628.21c-1.69-2.89-4.5-3.29-7.46-3.35,11.45-10.57,9-17.85-5.35-22.13-8.65-2.58-17.39-4.91-30.23-8.51,20.59-8.38,37-7.14,52.39,2.82,17.87,11.57,23.92,28.73,21.49,54.72-6.13-10.83-10.09-17.16-13.4-23.81C701.09,615.56,695.48,617.36,689.83,628.21Z" fill="#fff"/><path d="M332.2,617.38c-.84,2.21-1.68,4.41-2.53,6.62-3.74-5-7.3-4.6-10.34.59-4.51,7.69-8.83,15.5-16,28.06-2.22-23,1.79-38.77,15.57-50.91,15.77-13.89,33.92-16.47,58.22-7.93-12.87,3.84-22,5.58-30.18,9.35C340.86,606,330.61,606,332.2,617.38Z" fill="#fff"/></g><g id="Layer_1" data-name="Layer 1"><g mask="url(#mask)"><g id="Group-3"><rect id="Rectangle-5" y="3" width="1021" height="1021" fill="#66ddb7" fill-opacity="0.1" stroke="#65dcb7" stroke-width="0.5"/><path id="Rectangle-6" d="M50.53,173.17H970.47a8,8,0,0,1,8,8v664.7a8,8,0,0,1-8,8H50.53a8,8,0,0,1-8-8V181.15A8,8,0,0,1,50.53,173.17Z" fill="none" stroke="#65dcb7" stroke-width="0.5"/><rect id="Rectangle-6-2" data-name="Rectangle-6" x="170.17" y="45.54" width="680.67" height="935.92" rx="7.99" ry="7.99" fill="none" stroke="#65dcb7" stroke-width="0.5"/><rect id="Rectangle-6-3" data-name="Rectangle-6" x="106.35" y="109.35" width="808.29" height="808.29" rx="7.99" ry="7.99" fill="none" stroke="#65dcb7" stroke-width="0.5"/><circle id="Oval-3" cx="510.5" cy="513.5" r="467.96" fill="none" stroke="#65dcb7" stroke-width="0.5"/><circle id="Oval-3-2" data-name="Oval-3" cx="510.5" cy="513.5" r="212.71" fill="none" stroke="#65dcb7" stroke-width="0.5"/><path id="Line-2" d="M1.12,1023.18,1020.06,4" fill="none" stroke="#65dcb7" stroke-linecap="square" stroke-width="0.5" opacity="0.3" style="isolation:isolate"/><path id="Line-2-2" data-name="Line-2" d="M1019.62,1022.59,1,4.13" fill="none" stroke="#65dcb7" stroke-linecap="square" stroke-width="0.5" opacity="0.3" style="isolation:isolate"/><path id="Line-3" d="M361.6,3V1024" fill="none" stroke="#65dcb7" stroke-linecap="square" stroke-width="0.5" opacity="0.3" style="isolation:isolate"/><path id="Line-3-2" data-name="Line-3" d="M510.5,3V1024" fill="none" stroke="#65dcb7" stroke-linecap="square" stroke-width="0.5" opacity="0.3" style="isolation:isolate"/><path id="Line-3-3" data-name="Line-3" d="M659.61,3V1024" fill="none" stroke="#65dcb7" stroke-linecap="square" stroke-width="0.5" opacity="0.3" style="isolation:isolate"/><path id="Line-3-4" data-name="Line-3" d="M1020.29,364.6H0" fill="none" stroke="#65dcb7" stroke-linecap="square" stroke-width="0.2" opacity="0.3" style="isolation:isolate"/><path id="Line-3-5" data-name="Line-3" d="M1020.29,513.5H0" fill="none" stroke="#65dcb7" stroke-linecap="square" stroke-width="0.2" opacity="0.3" style="isolation:isolate"/><path id="Line-3-6" data-name="Line-3" d="M1020.29,662.4H0" fill="none" stroke="#65dcb7" stroke-linecap="square" stroke-width="0.5" opacity="0.3" style="isolation:isolate"/></g></g></g></svg>